<svg enable-background="new 0 0 1240 1240" height="1240" viewBox="0 0 1240 1240" width="1240" xmlns="http://www.w3.org/2000/svg"><circle cx="620" cy="619.998" fill="#fff" r="599.506"/><path d="m620 1227c-334.7 0-607-272.302-607-607 0-334.697 272.3-607 607-607 334.703 0 607 272.303 607 607 0 334.698-272.297 607-607 607zm0-1199.012c-326.437 0-592.011 265.577-592.011 592.012 0 326.435 265.575 592.013 592.011 592.013 326.438 0 592.013-265.578 592.013-592.013 0-326.435-265.575-592.012-592.013-592.012z" fill="#221f1f"/><circle cx="620.001" cy="619.998" fill="#89d6f7" r="508.073"/><circle cx="620.001" cy="619.998" fill="#89d6f7" r="508.073"/><path d="m199.093 1046.85c108.245 106.748 256.87 172.654 420.907 172.654 164.038 0 312.663-65.906 420.906-172.654z" fill="#ced4df"/><path d="m287.769 1046.85c105.684 93.299 244.472 149.961 396.533 149.961 58.084 0 114.224-8.303 167.337-23.717 71.085-29.815 135.211-72.937 189.268-126.244z" fill="#e5e8ec"/><path d="m620 1227c-160.508 0-311.859-62.088-426.168-174.815-2.164-2.138-2.825-5.364-1.672-8.182 1.155-2.813 3.893-4.646 6.934-4.646h841.813c3.042 0 5.778 1.834 6.935 4.646 1.151 2.817.493 6.044-1.674 8.182-114.312 112.727-265.659 174.815-426.168 174.815zm-402.231-172.656c109.779 101.817 251.886 157.669 402.231 157.669s292.451-55.852 402.231-157.669z" fill="#221f1f"/><path d="m450.769 1089.516h166.313" fill="#fff"/><path d="m617.082 1097.007h-166.312c-4.139 0-7.494-3.35-7.494-7.494 0-4.141 3.355-7.494 7.494-7.494h166.312c4.139 0 7.494 3.354 7.494 7.494-.001 4.144-3.355 7.494-7.494 7.494z" fill="#221f1f"/><path d="m642.819 1089.516h29.578" fill="#fff"/><path d="m672.397 1097.007h-29.576c-4.139 0-7.493-3.35-7.493-7.494 0-4.141 3.354-7.494 7.493-7.494h29.576c4.139 0 7.494 3.354 7.494 7.494.001 4.144-3.355 7.494-7.494 7.494z" fill="#221f1f"/><path d="m598.931 1125.382h36.3" fill="#fff"/><path d="m635.231 1132.874h-36.3c-4.138 0-7.494-3.351-7.494-7.494 0-4.142 3.356-7.494 7.494-7.494h36.3c4.139 0 7.494 3.353 7.494 7.494.001 4.143-3.355 7.494-7.494 7.494z" fill="#221f1f"/><path d="m672.397 1125.382h176.116" fill="#fff"/><path d="m848.513 1132.874h-176.116c-4.139 0-7.493-3.351-7.493-7.494 0-4.142 3.354-7.494 7.493-7.494h176.115c4.139 0 7.493 3.353 7.493 7.494.001 4.143-3.354 7.494-7.492 7.494z" fill="#221f1f"/><path d="m174.302 429.443v554.524c0 36.873 29.889 66.76 66.759 66.76h.002c36.868 0 66.759-29.887 66.759-66.76v-554.524z" fill="#ffcf5c"/><path d="m241.062 1057.016c-40.279 0-73.048-32.769-73.048-73.048v-560.817h146.095v560.816c0 40.28-32.768 73.049-73.047 73.049zm-60.471-621.287v548.238c0 33.346 27.127 60.472 60.471 60.472s60.471-27.126 60.471-60.472v-548.238z" fill="#221f1f"/><path d="m886.727 157.324h-545.729c-55.252 0-99.922 44.671-99.922 99.919v545.729c0 55.255 44.963 100.213 100.213 100.213h545.732c55.253 0 100.211-44.958 100.211-100.213v-545.729c-.295-55.248-44.958-99.919-100.505-99.919z" fill="#010101"/><path d="m850.578 611.36c-54.074-64.355-136.949 71.42-181.617 100.516-30.855 20.272-77.876 21.742-110.793 2.64-44.963-26.452-31.149-89.926 16.167-105.502 42.315-14.105 116.372 30.562 143.115-14.105 33.21-54.952-79.933-67.888-113.435-66.417-60.244 2.349-118.435 22.04-153.991 67.592-38.499 49.077-29.681 108.443 12.636 153.108 43.198 41.729 105.797 57.895 168.395 52.905 15.867-1.176 42.904-7.938 63.473-19.4 41.141-22.629 166.923-158.405 156.05-171.337zm-394.679-47.897c20.867 4.111-19.69-112.555-22.333-128.716-3.231-19.397-10.287-46.728-29.68-49.668-22.337-3.232-28.508 22.333-24.102 44.669 5.294 22.92 56.719 129.596 76.115 133.715zm173.093-60.537c32.327 4.701 30.271-150.763 30.271-171.919 0-19.103 7.346-71.707-18.22-76.407-35.265-6.762-38.792 39.673-39.382 64.36 1.177 24.977-6.46 179.266 27.331 183.966zm76.997 24.979c35.263 14.692 62.302-142.237 66.417-162.222 3.82-20.573 4.703-64.063-30.563-50.249-17.635 7.05-20.869 35.557-23.51 51.424-4.411 19.692-39.674 149.585-12.344 161.047zm-170.153-13.228c39.968 2.938 2.352-154.872-.881-176.031-3.233-21.453-17.633-64.358-47.313-39.378-14.99 12.636-8.233 41.729-5.292 58.186 2.645 21.158 22.921 154.872 53.486 157.223z" fill="#fff"/><path d="m574.177 421.091l-46.07-58.104h-220.267v620.967c0 36.922-29.941 66.784-66.787 66.784h756.458c35.689 0 64.621-28.936 64.621-64.622v-565.025z" fill="#ffcf5c"/><path d="m758.375 656.93c-31.798-37.844-80.532 41.995-106.795 59.104-18.143 11.919-45.795 12.787-65.151 1.551-26.44-15.555-18.315-52.876 9.508-62.036 24.884-8.295 68.429 17.971 84.154-8.295 19.526-32.312-47.001-39.921-66.702-39.054-35.424 1.38-69.641 12.958-90.55 39.745-22.638 28.858-17.453 63.769 7.43 90.031 25.403 24.538 62.211 34.046 99.02 31.109 9.333-.692 25.23-4.669 37.324-11.405 24.194-13.31 98.156-93.149 91.762-100.75zm-232.08-28.166c12.269 2.418-11.578-66.185-13.134-75.688-1.9-11.407-6.048-27.478-17.453-29.206-13.134-1.902-16.763 13.134-14.172 26.267 3.114 13.476 33.352 76.206 44.759 78.627zm101.78-35.597c19.011 2.765 17.803-88.653 17.803-101.094 0-11.23 4.319-42.163-10.715-44.928-20.737-3.976-22.81 23.328-23.157 37.845.692 14.687-3.799 105.412 16.069 108.177zm45.279 14.687c20.733 8.638 36.633-83.64 39.052-95.39 2.248-12.097 2.766-37.672-17.971-29.548-10.368 4.143-12.271 20.909-13.824 30.238-2.593 11.581-23.329 87.961-7.257 94.7zm-100.055-7.777c23.502 1.728 1.383-91.069-.518-103.512-1.901-12.614-10.369-37.842-27.823-23.156-8.813 7.433-4.839 24.54-3.111 34.213 1.554 12.446 13.479 91.07 31.452 92.455z" fill="#f8b44b"/><path d="m997.512 1057.025h-756.458v-12.576c33.359 0 60.498-27.146 60.498-60.501v-627.246h229.595l46.07 58.099h491.206v571.314c-.001 39.102-31.811 70.91-70.911 70.91zm-715.512-12.576h715.512c32.164 0 58.333-26.167 58.333-58.334v-558.739h-484.708l-46.07-58.101h-210.939v614.672c0 25.136-12.753 47.348-32.128 60.502z" fill="#221f1f"/><path d="m537.598 802.743h40.108v40.107h-40.108z" fill="#324a5e"/><path d="m577.706 842.851h40.11v40.116h-40.11z" fill="#324a5e"/><path d="m617.816 802.743h40.112v40.107h-40.112z" fill="#324a5e"/><path d="m657.928 842.851h40.111v40.116h-40.111z" fill="#324a5e"/><path d="m698.039 802.743h40.112v40.107h-40.112z" fill="#324a5e"/><path d="m738.151 842.851h40.106v40.116h-40.106z" fill="#324a5e"/><path d="m778.258 802.743h40.111v40.107h-40.111z" fill="#324a5e"/><path d="m818.369 842.851h40.114v40.116h-40.114z" fill="#324a5e"/><path d="m858.483 802.743h40.107v40.107h-40.107z" fill="#324a5e"/><path d="m898.591 842.851h40.111v40.116h-40.111z" fill="#324a5e"/><path d="m938.702 802.743h40.111v40.107h-40.111z" fill="#324a5e"/><path d="m978.813 842.851h40.109v40.116h-40.109z" fill="#324a5e"/><path d="m523.571 938.357c0 24.539-19.896 44.43-44.432 44.43-24.539 0-44.432-19.891-44.432-44.43 0-24.543 19.893-135.614 44.432-135.614 24.537 0 44.432 111.071 44.432 135.614z" fill="#324a5e"/><path d="m503.803 937.763c0 13.62-11.042 24.663-24.663 24.663-13.621 0-24.663-11.043-24.663-24.663 0-13.624 11.042-24.66 24.663-24.66 13.62 0 24.663 11.036 24.663 24.66z" fill="#ffcf5c"/><path d="m778.258 510.29h240.665v23.377h-240.665z" fill="#f8b44b"/><path d="m778.258 570.692h240.665v23.379h-240.665z" fill="#f8b44b"/><path d="m778.258 631.096h157.313v23.378h-157.313z" fill="#f8b44b"/></svg>